<svg xmlns="http://www.w3.org/2000/svg" viewBox="0 0 512 512" id="avatar">
  <path fill="#c7b8a2" d="M439.66 375.312h5.385v4.308l.794.794c4.705 4.876 7.257 11.226 7.257 17.915 0 14.23-11.566 25.853-25.796 25.853-14.23 0-25.796-11.622-25.796-25.853 0-14.23 11.566-25.795 25.796-25.795 2.438 0 4.876.397 7.767 1.304l4.592 1.474zm-84.815-175.07h-85.38c-2.155 0-3.912-1.701-3.912-3.855s1.757-3.912 3.912-3.912h85.38c2.155 0 3.912 1.757 3.912 3.912s-1.757 3.855-3.912 3.855zm-14.91 15.817c-4.422 11.34-15.364 18.993-27.78 18.993s-23.358-7.654-27.78-18.993h55.56zm-20.466 71.434a63.53 63.53 0 0 1 1.757 14.797c0 35.604-28.97 64.575-64.574 64.575s-64.574-28.971-64.574-64.575c0-4.875.623-9.808 1.757-14.797H319.47z"></path>
  <path d="M346.511 213.905c-3.911 15.817-18.085 26.816-34.356 26.816s-30.444-10.999-34.356-26.816l-.907-3.515h70.527l-.908 3.515zm-34.356 21.147c12.416 0 23.358-7.654 27.78-18.993h-55.56c4.422 11.339 15.364 18.993 27.78 18.993zm-52.271-38.665c0-5.273 4.308-9.582 9.58-9.582h85.381c5.273 0 9.582 4.31 9.582 9.582 0 5.272-4.31 9.524-9.582 9.524h-85.38c-5.273 0-9.581-4.252-9.581-9.524zm5.669 0c0 2.154 1.757 3.855 3.912 3.855h85.38c2.155 0 3.912-1.701 3.912-3.855s-1.757-3.912-3.912-3.912h-85.38a3.92 3.92 0 0 0-3.912 3.912z"></path>
  <path fill="#c7b8a2" d="M243.896 191.908c2.154 0 3.855 1.757 3.855 3.912 0 2.154-1.7 3.855-3.855 3.855h-85.38c-2.155 0-3.913-1.701-3.913-3.855a3.92 3.92 0 0 1 3.912-3.912h85.38zm-14.967 23.584c-4.366 11.34-15.308 18.993-27.723 18.993-12.473 0-23.415-7.654-27.78-18.993h55.503z"></path>
  <path d="M256.652 372.534c-38.722 0-70.244-31.522-70.244-70.244 0-6.066.85-12.245 2.495-18.368l.567-2.098h134.364l.567 2.098a68.58 68.58 0 0 1 2.494 18.368c0 38.722-31.465 70.244-70.243 70.244zm-64.574-70.244c0 35.604 28.97 64.575 64.574 64.575s64.574-28.971 64.574-64.575a63.53 63.53 0 0 0-1.757-14.797H193.835c-1.134 4.99-1.757 9.922-1.757 14.797zm43.484-88.952a35.354 35.354 0 0 1-34.356 26.816c-16.328 0-30.445-10.998-34.414-26.816l-.85-3.515h70.47l-.85 3.515zm-34.356 21.147c12.415 0 23.357-7.654 27.723-18.993h-55.503c4.365 11.34 15.307 18.993 27.78 18.993zm-52.272-38.665a9.533 9.533 0 0 1 9.581-9.582h85.38c5.273 0 9.525 4.252 9.525 9.582a9.509 9.509 0 0 1-9.524 9.524h-85.38c-5.33 0-9.582-4.252-9.582-9.524zm5.67 0c0 2.154 1.757 3.855 3.911 3.855h85.38c2.155 0 3.856-1.701 3.856-3.855 0-2.155-1.7-3.912-3.855-3.912h-85.38a3.92 3.92 0 0 0-3.913 3.912z"></path>
  <path fill="#c7b8a2" d="m73.815 374.632 4.422-1.191c2.438-.624 4.479-.907 6.463-.907 14.23 0 25.796 11.565 25.796 25.796 0 14.23-11.566 25.852-25.796 25.852s-25.796-11.622-25.796-25.853c0-7.256 3.005-14.003 8.448-18.992l.964-.85V374.632h5.499z"></path>
  <path fill="#a18964" d="M347.419 210.39h-70.527l.907 3.515c3.912 15.817 18.085 26.816 34.356 26.816s30.445-10.999 34.356-26.816l.908-3.515zm-87.535-14.003c0 5.272 4.308 9.524 9.58 9.524h85.381c5.273 0 9.582-4.252 9.582-9.524 0-5.273-4.31-9.582-9.582-9.582h-85.38c-5.273 0-9.581 4.31-9.581 9.582zm-101.369 8.957h85.38a9.509 9.509 0 0 0 9.525-9.524c0-5.33-4.252-9.582-9.524-9.582h-85.38a9.533 9.533 0 0 0-9.582 9.582c0 5.272 4.252 9.524 9.581 9.524zm77.897 4.479h-70.47l.85 3.515c3.969 15.818 18.086 26.816 34.414 26.816a35.354 35.354 0 0 0 34.356-26.816l.85-3.515zM90.936 316.35c-6.633 16.442-12.075 34.527-16.157 53.803l-.964 4.479h-5.5c-.056-22.394 1.815-43.088 5.613-63.157l2.325-11.793c.623-2.607 1.304-5.159 1.984-7.767l1.077-4.025c1.36-5.612 3.232-11.055 5.216-16.781.737-2.155 1.53-4.252 2.154-6.293 6.633-17.008 14.06-31.522 22.734-44.448l.454-.907c2.948-10.432 6.86-19.616 11.736-27.213l2.494-4.025-4.705-.34c-15.705-1.191-25.456-6.69-25.456-11.056-.057-4.875 11.452-10.601 28.517-11.395l8.788-.397-8.391-5.443c-.68-.453-1.36-.85-2.041-1.36-7.314-5.216-13.266-11.226-16.895-16.952-3.061-4.819-4.025-8.957-2.551-10.998 2.04-2.778 9.978-2.835 21.26 2.55l.907.398.964-.17c3.288-.794 6.86-1.248 10.488-1.418l8.788-.453-7.37-4.762a61.325 61.325 0 0 1-2.438-1.645c-6.293-4.535-11.452-9.694-14.57-14.627-2.495-3.968-3.345-7.483-2.211-9.07 1.984-2.835 12.245-2.098 25.455 6.576l.68.453.85.057c.964 0 1.985.284 3.062.907l5.783 3.175-1.644-6.35c-3.232-12.812-1.758-22.734 1.757-23.868 3.118-1.02 10.489 4.876 16.158 18.71l2.098 5.102 2.948-4.706c17.575-28.517 48.416-45.525 82.319-45.525 35.377 0 67.806 18.88 84.7 49.267l3.062 5.556 2.097-6.01c5.443-15.704 13.947-23.584 17.576-22.394 3.288 1.078 4.989 10.035 2.04 22.621l-.85 3.685 3.742-.226c.34 0 .964-.057.964-.114l2.21 1.247 1.361-.907c13.21-8.957 24.322-10.261 26.42-7.257 2.267 3.119-3.119 13.947-16.725 23.698-.85.567-1.644 1.134-2.495 1.645l-7.37 4.762 8.788.453c2.494.114 5.102.397 7.994.907l.85.17.794-.34c11.225-5.102 18.312-4.648 20.126-2.097 1.474 2.04.51 6.18-2.495 10.998-3.628 5.726-9.637 11.736-16.894 16.952-.68.453-1.36.907-2.041 1.304l-8.39 5.499 8.73.397c17.121.794 28.574 6.52 28.574 11.395 0 4.366-9.808 9.865-25.513 11.056l-4.705.34 2.551 4.025c4.819 7.597 8.788 16.781 11.736 27.213l.396.85c8.675 12.983 16.101 27.497 22.678 44.391.737 2.155 1.474 4.252 2.211 6.407 1.984 5.726 3.912 11.169 5.273 16.838l1.02 3.968c.737 2.608 1.417 5.16 1.984 7.654l2.381 11.906c3.799 20.296 5.67 41.16 5.613 63.837h-5.386l-.964-4.762c-4.138-19.333-9.58-37.588-16.327-54.256l-4.252-10.375c-1.02-2.155-2.098-4.309-3.119-6.407l-5.612-11.395-1.02 9.865c-4.763 48.53-22.225 94.848-45.47 120.814l-2.437 2.721 3.232 1.701c13.493 7.03 23.924 18.936 29.027 33.166H279.329c3.119-8.674 8.278-16.611 15.024-23.131l2.211-2.098-2.267-2.04c-7.257-6.69-16.271-14.968-37.645-15.025h-.113c-20.977 0-30.388 7.144-38.779 13.437l-2.721 2.097 2.551 2.268c7.484 6.747 13.096 15.137 16.441 24.492H120.644c5.386-15.137 16.724-27.553 31.408-34.357l3.402-1.587-2.438-2.835c-23.074-27.156-42.294-75.516-47.793-120.304l-1.134-9.524-5.782 11.792c-1.021 2.098-2.098 4.195-3.119 6.463l-4.252 10.318zm235.96-14.06a68.58 68.58 0 0 0-2.495-18.368l-.567-2.098H189.47l-.567 2.098c-1.644 6.123-2.494 12.302-2.494 18.368 0 38.722 31.521 70.244 70.243 70.244 38.778 0 70.243-31.522 70.243-70.244z"></path>
  <path d="M74.779 370.153c4.082-19.276 9.524-37.361 16.157-53.803l4.252-10.318c1.02-2.268 2.098-4.365 3.119-6.463l5.782-11.792 1.134 9.524c5.5 44.788 24.719 93.148 47.793 120.304l2.438 2.835-3.402 1.587c-14.684 6.804-26.022 19.22-31.408 34.357H234.03c-3.345-9.355-8.957-17.745-16.441-24.492l-2.551-2.268 2.721-2.097c8.39-6.293 17.802-13.437 38.779-13.437h.113c21.374.057 30.388 8.334 37.645 15.024l2.267 2.041-2.21 2.098c-6.747 6.52-11.906 14.457-15.025 23.13h113.388c-5.103-14.23-15.534-26.135-29.027-33.165l-3.232-1.7 2.438-2.722c23.244-25.966 40.706-72.285 45.468-120.814l1.02-9.865 5.613 11.395c1.021 2.098 2.098 4.252 3.119 6.407l4.252 10.375c6.746 16.668 12.189 34.923 16.327 54.256l.964 4.762-4.592-1.474c-2.891-.907-5.33-1.304-7.767-1.304-14.23 0-25.796 11.565-25.796 25.795 0 14.23 11.566 25.853 25.796 25.853 14.23 0 25.796-11.622 25.796-25.853 0-6.69-2.552-13.04-7.257-17.915l-.794-.793v-4.309c.057-22.678-1.814-43.54-5.613-63.837l-2.38-11.906c-.568-2.494-1.248-5.046-1.985-7.654l-1.02-3.968c-1.361-5.67-3.289-11.112-5.273-16.838-.737-2.155-1.474-4.252-2.211-6.407-6.577-16.894-14.003-31.408-22.677-44.39l-.397-.851c-2.948-10.432-6.917-19.616-11.736-27.213l-2.551-4.025 4.705-.34c15.705-1.191 25.513-6.69 25.513-11.056 0-4.875-11.453-10.601-28.574-11.395l-8.73-.397 8.39-5.5c.68-.396 1.36-.85 2.04-1.303 7.258-5.216 13.267-11.226 16.895-16.952 3.005-4.819 3.97-8.957 2.495-10.998-1.814-2.551-8.9-3.005-20.126 2.097l-.794.34-.85-.17c-2.892-.51-5.5-.793-7.994-.907l-8.788-.453 7.37-4.762c.85-.51 1.645-1.078 2.495-1.645 13.607-9.75 18.992-20.58 16.725-23.698-2.098-3.004-13.21-1.7-26.42 7.257l-1.36.907-2.211-1.247c0 .057-.624.114-.964.114l-3.742.226.85-3.685c2.949-12.586 1.248-21.543-2.04-22.62-3.629-1.191-12.133 6.69-17.576 22.393l-2.097 6.01-3.062-5.556c-16.894-30.388-49.323-49.267-84.7-49.267-33.903 0-64.744 17.008-82.32 45.525l-2.947 4.706-2.098-5.103c-5.67-13.833-13.04-19.73-16.158-18.709-3.515 1.134-4.989 11.056-1.757 23.868l1.644 6.35-5.783-3.175c-1.077-.623-2.097-.907-3.061-.907l-.85-.057-.681-.453c-13.21-8.674-23.471-9.411-25.455-6.577-1.134 1.588-.284 5.103 2.21 9.071 3.119 4.933 8.278 10.092 14.57 14.627a61.325 61.325 0 0 0 2.439 1.645l7.37 4.762-8.788.453c-3.628.17-7.2.624-10.488 1.418l-.964.17-.907-.397c-11.282-5.386-19.219-5.33-21.26-2.551-1.474 2.04-.51 6.18 2.551 10.998 3.629 5.726 9.581 11.736 16.895 16.952.68.51 1.36.907 2.04 1.36l8.392 5.443-8.788.397c-17.065.794-28.574 6.52-28.517 11.395 0 4.366 9.751 9.865 25.456 11.056l4.705.34-2.494 4.025c-4.876 7.597-8.788 16.781-11.736 27.213l-.453.907c-8.675 12.926-16.102 27.44-22.735 44.448-.623 2.04-1.417 4.139-2.154 6.293-1.984 5.726-3.855 11.169-5.216 16.781l-1.077 4.025c-.68 2.608-1.36 5.16-1.984 7.767l-2.325 11.793c-3.798 20.07-5.67 40.763-5.612 63.157V378.487l-.964.85c-5.443 4.99-8.448 11.736-8.448 18.992 0 14.23 11.566 25.853 25.796 25.853s25.796-11.622 25.796-25.853c0-14.23-11.566-25.795-25.796-25.795-1.984 0-4.025.283-6.463.907l-4.422 1.19.964-4.478zm6.576-107.265c6.803-17.405 14.344-32.202 23.188-45.411 2.608-9.071 5.953-17.292 9.978-24.435-15.874-2.041-26.25-8.334-26.25-16.215-.056-7.88 10.376-14.173 26.08-16.328-6.463-5.102-11.792-10.715-15.25-16.214-4.423-7.03-5.273-13.21-2.325-17.291 4.138-5.783 14.57-5.613 27.44.283.963-.17 1.984-.34 3.004-.51-5.329-4.309-9.694-9.015-12.586-13.55-3.968-6.293-4.705-11.736-2.04-15.42 5.385-7.598 20.296-3.006 32.201 4.535-2.04-11.68-.85-23.188 6.52-25.682 7.54-2.552 15.59 6.18 21.033 17.121 19.05-27.496 50.174-43.824 84.304-43.824 35.434 0 68.09 17.915 86.628 47.112 5.613-12.87 14.514-23.13 22.62-20.41 6.52 2.212 8.958 12.133 6.52 25.683 12.416-7.88 26.987-11.85 32.203-4.536 5.215 7.314-3.289 19.786-14.684 28.97.113.057.227.057.34.057 12.473-5.499 22.28-5.442 26.306.17 2.891 4.082 2.098 10.262-2.381 17.292-3.459 5.5-8.788 11.112-15.25 16.214 15.76 2.155 26.135 8.448 26.135 16.328-.057 7.88-10.432 14.174-26.25 16.215 4.026 7.2 7.371 15.364 9.979 24.491 8.9 13.323 16.441 28.064 23.074 45.242.794 2.268 1.53 4.365 2.268 6.463 1.928 5.613 3.969 11.452 5.33 17.348l1.076 3.855c.68 2.665 1.418 5.273 2.041 7.938l2.381 12.019c4.026 21.26 5.897 43.2 5.726 66.955 5.216 5.783 8.051 13.21 8.051 20.976 0 17.405-14.117 31.522-31.465 31.522s-31.465-14.117-31.465-31.522c0-5.442 1.36-10.545 3.798-14.967 5.33-9.808 15.761-16.498 27.667-16.498 1.587 0 3.175.17 4.876.454-3.912-17.405-8.958-33.79-15.024-48.87l-4.252-10.261c-3.459 25.909-10.375 50.91-19.843 72.284-6.69 15.364-14.74 28.8-23.641 39.459 14.457 8.504 25.228 22.394 29.877 38.495l1.077 3.628H271.676l1.02-3.628c2.892-10.092 8.278-19.446 15.591-27.1-6.406-5.783-14.457-11.509-31.635-11.565h-.113c-16.952 0-25.4 4.932-32.656 10.318a66.307 66.307 0 0 1 16.781 28.347l1.02 3.628H112.99l1.02-3.628a65.673 65.673 0 0 1 32.43-39.913c-21.204-26.419-38.836-69.733-45.526-111.346-.17.34-.34.737-.51 1.134l-4.195 10.148c-6.01 14.967-11.055 31.295-14.967 48.643 1.19-.17 2.324-.227 3.458-.227 17.348 0 31.465 14.117 31.465 31.465 0 17.405-14.117 31.522-31.465 31.522s-31.465-14.117-31.465-31.522c0-8.447 3.288-16.327 9.411-22.28-.113-23.301 1.758-44.788 5.726-65.651l2.325-11.906a276.48 276.48 0 0 1 2.097-8.05l1.02-3.912c1.418-5.84 3.46-11.68 5.387-17.292.737-2.098 1.474-4.195 2.154-6.35z"></path>
</svg>
